<svg height="512pt" viewBox="0 0 512 512" width="512pt" xmlns="http://www.w3.org/2000/svg" fill="white">
  <path d="m270.953125 287c0 8.285156-6.71875 15-15 15-8.285156 0-15-6.714844-15-15s6.714844-15 15-15c8.28125 0 15 6.714844 15 15zm0 0"/>
  <path d="m255.953125 152c-74.441406 0-135 60.558594-135 135s60.558594 135 135 135c74.4375 0 135-60.558594 135-135s-60.5625-135-135-135zm75 150h-32.582031c-6.179688 17.460938-22.871094 30-42.417969 30-24.8125 0-45-20.191406-45-45 0-19.550781 12.539063-36.238281 30-42.421875v-62.578125h30v62.578125c12.769531 4.523437 22.898437 14.652344 27.417969 27.421875h32.582031zm0 0"/>
  <path d="m491.730469 51.289062c-24.902344-24.898437-64.398438-27.097656-91.871094-5.113281l-13.082031 10.46875 39.15625 39.160157-21.921875 21.921874c-36.070313-31.589843-82.289063-51.855468-133.058594-55.214843v-32.511719h30v-30h-90v30h30v32.511719c-50.773437 3.359375-96.988281 23.625-133.0625 55.214843l-21.886719-21.886718 39.191406-39.195313-13.082031-10.46875c-27.472656-21.980469-66.964843-19.78125-91.871093 5.113281-24.894532 24.902344-27.09375 64.398438-5.113282 91.871094l10.46875 13.085938 39.195313-39.195313 21.886719 21.886719c-34.679688 39.597656-55.726563 91.414062-55.726563 148.0625 0 66.335938 28.859375 126.046875 74.671875 167.265625l-10.15625 27.734375h-34.515625v30h55.480469l14.03125-38.324219c35.875 24.1875 79.058594 38.324219 125.488281 38.324219 46.425781 0 89.613281-14.136719 125.484375-38.328125l14.03125 38.328125h55.484375v-30h-34.519531l-10.15625-27.738281c45.8125-41.214844 74.671875-100.925781 74.671875-167.261719 0-56.648438-21.046875-108.464844-55.726563-148.0625l21.921875-21.917969 39.226563 39.226563 10.472656-13.085938c21.980469-27.472656 19.78125-66.96875-5.113281-91.871094zm-235.777344 400.710938c-90.980469 0-165-74.019531-165-165s74.019531-165 165-165c90.976563 0 165 74.019531 165 165s-74.023437 165-165 165zm0 0"/>
</svg>
