<svg clip-rule="evenodd" fill-rule="evenodd" height="300" image-rendering="optimizeQuality" shape-rendering="geometricPrecision" text-rendering="geometricPrecision" viewBox="0 0 6.72 6.72" width="300" xmlns="http://www.w3.org/2000/svg" version="1.1" xmlns:xlink="http://www.w3.org/1999/xlink" xmlns:svgjs="http://svgjs.dev/svgjs"><g width="100%" height="100%" transform="matrix(1,0,0,1,0,0)"><g id="Layer_x0020_1"><rect fill="#000000" height="6.72" rx="1.28" width="6.72" fill-opacity="1" data-original-color="#d32f2fff" stroke="none" stroke-opacity="1"/><g fill="#fffffe"><path d="m5.17904 1.98128v-.00023228l.0605945.00042126c.00255512.00001968.00508661.00011811.00759843.00029134.0656457.00046063.113303.0429449.11276.121756-.00008268.0123858-.0024252.0228976-.00545669.0347165l-.496571 1.93665.00024409.00005906-.0150472.0587047c-.00065748.00257087-.00139764.00510236-.0022126.00759449l-.0130512.0509016-.0155276-.00396063c-.0225315.0228976-.0539252.0365709-.0877283.0365709h-2.58361c-.0637008 0-.11274-.0492402-.120661-.111047l-.251157-1.95904-.00023228.00002756-.00771654-.0602087c-.0085-.0662795.0385315-.127138.104807-.135638.00759449-.00097244.0142008-.00075984.0217165-.00070866l3.29125.0231417zm-2.76541 1.2878c-.0334724 0-.0606063.0271378-.0606063.0606063 0 .0334724.0271339.0606063.0606063.0606063h2.14624c.0334685 0 .0606063-.0271339.0606063-.0606063 0-.0334685-.0271378-.0606063-.0606063-.0606063zm-.0394567-.393937c-.0334685 0-.0606063.0271339-.0606063.0606063 0 .0334685.0271378.0606024.0606063.0606024h2.26279c.0334724 0 .0606063-.0271339.0606063-.0606024 0-.0334724-.0271339-.0606063-.0606063-.0606063zm-.0466181-.393941c-.0334685 0-.0606063.0271339-.0606063.0606063 0 .0334685.0271378.0606063.0606063.0606063h2.40265c.0334685 0 .0606063-.0271378.0606063-.0606063 0-.0334724-.0271378-.0606063-.0606063-.0606063z" fill="#fffffe" fill-opacity="1" data-original-color="#fffffeff" stroke="none" stroke-opacity="1"/><path d="m4.75017 4.49529.00022441.0001378-.0112441.0438543c-.013878.0541417-.0629409.0911063-.11852.0911063h-2.40792c-.0669213 0-.121209-.0542874-.121209-.121209 0-.0669213.0542874-.121209.121209-.121209h2.31524l.489646-1.90963c.0165039-.0643622.0826693-.103657.147067-.0872323.0644488.0164331.103815.0827283.0872913.147169l-.501791 1.95701z" fill="#fffffe" fill-opacity="1" data-original-color="#fffffeff" stroke="none" stroke-opacity="1"/><path d="m2.8266 4.65969c.081 0 .154346.0328425.207429.0859291.0530866.0530866.0859252.126433.0859252.207429 0 .0810039-.0328386.154346-.0859252.207429-.0530866.0530866-.126429.0859291-.207429.0859291-.0809961 0-.154343-.0328425-.207429-.0859291-.0530866-.0530827-.0859291-.126425-.0859291-.207429 0-.0809961.0328425-.154343.0859291-.207429.0530866-.0530866.126433-.0859291.207429-.0859291z" fill-rule="nonzero" fill="#fffffe" fill-opacity="1" data-original-color="#fffffeff" stroke="none" stroke-opacity="1"/><path d="m4.2896 4.65969c.081 0 .154343.0328425.207429.0859291.0530866.0530866.0859291.126433.0859291.207429 0 .081-.0328425.154343-.0859291.207433-.0530866.0530827-.126429.0859252-.207429.0859252-.0809961 0-.154343-.0328425-.207429-.0859252-.0530827-.0530906-.0859252-.126433-.0859252-.207433 0-.0809961.0328425-.154343.0859252-.207429.0530866-.0530866.126433-.0859291.207429-.0859291z" fill-rule="nonzero" fill="#fffffe" fill-opacity="1" data-original-color="#fffffeff" stroke="none" stroke-opacity="1"/><path d="m1.70784 1.71601h-.226634c-.0669213 0-.121209-.0542874-.121209-.121209 0-.0669213.0542874-.121209.121209-.121209h.331874c.0608307 0 .112677.0446378.120772.105138l.00335827.0251496-.00017323.00022441.132634.991232c.00886614.0662677-.0380748.127205-.104319.135843-.0661339.00862205-.126772-.0380906-.13561-.104142l-.121902-.911028z" fill="#fffffe" fill-opacity="1" data-original-color="#fffffeff" stroke="none" stroke-opacity="1"/></g></g></g></svg>