<svg id="Capa_1" enable-background="new 0 0 495.922 495.922" height="512" viewBox="0 0 495.922 495.922" width="512" xmlns="http://www.w3.org/2000/svg"><g><g id="Layer_1_4_"><g><path d="m375.958 151.963h-72.64c-4.379-30.574-32.714-51.811-63.288-47.432-24.59 3.522-43.91 22.842-47.432 47.432h-72.64c-4.418 0-8 3.582-8 8s3.582 8 8 8h256c4.418 0 8-3.582 8-8s-3.581-8-8-8zm-167.191 0c4.42-21.645 25.55-35.608 47.194-31.188 15.706 3.207 27.981 15.482 31.188 31.188z"/></g><g><path d="m343.958 183.963c-4.418 0-8 3.582-8 8v176c-.003 4.417-3.583 7.997-8 8h-160c-4.417-.003-7.997-3.583-8-8v-176c0-4.418-3.582-8-8-8s-8 3.582-8 8v176c.015 13.249 10.751 23.985 24 24h160c13.249-.015 23.985-10.751 24-24v-176c0-4.418-3.581-8-8-8z"/></g><g><path d="m255.958 327.963v-112c0-4.418-3.582-8-8-8s-8 3.582-8 8v112c0 4.418 3.582 8 8 8s8-3.581 8-8z"/></g><g><path d="m303.958 327.963v-112c0-4.418-3.582-8-8-8s-8 3.582-8 8v112c0 4.418 3.582 8 8 8s8-3.581 8-8z"/></g><g><path d="m207.958 327.963v-112c0-4.418-3.582-8-8-8s-8 3.582-8 8v112c0 4.418 3.582 8 8 8s8-3.581 8-8z"/></g></g></g><g id="Layer_2_29_"><g><path d="m247.958 495.922c-58.455 0-116.91-1.994-174.956-5.981-35.735-2.476-64.545-31.286-67.02-67.017-7.976-116.097-7.976-233.825 0-349.918 2.473-35.736 31.282-64.548 67.014-67.024 116.099-7.976 233.827-7.977 349.919 0 35.739 2.473 64.552 31.286 67.024 67.021 7.977 116.096 7.977 233.823.001 349.915-2.476 35.739-31.289 64.55-67.023 67.021-.001.001-.002.001-.004.001-58.046 3.987-116.5 5.982-174.955 5.982zm.001-479.922c-58.095 0-116.171 1.981-173.861 5.944-27.806 1.927-50.229 24.352-52.153 52.162-7.925 115.361-7.925 232.352 0 347.717 1.926 27.805 24.35 50.229 52.159 52.155 115.36 7.926 232.35 7.927 347.714-.001l-.004.001c27.812-1.924 50.238-24.349 52.165-52.161 7.925-115.36 7.925-232.349-.001-347.713-1.924-27.81-24.35-50.235-52.163-52.16-57.674-3.962-115.775-5.944-173.856-5.944z"/></g></g></svg>