<svg id="User" enable-background="new 0 0 32 32" viewBox="0 0 32 32" xmlns="http://www.w3.org/2000/svg"><g><path d="m25.067 17.573c-.439-.44-.894-.831-1.35-1.162-.447-.326-1.072-.226-1.396.22-.13.178-.174.384-.174.589 0 .309.125.613.394.808.371.271.745.593 1.111.959 2.042 2.042 3.167 4.76 3.167 7.652v.361c0 .552-.448 1-1 1h-19.639c-.551 0-1-.448-1-1v-.36c0-3.421 1.564-6.563 4.292-8.622.26-.196.381-.495.381-.798 0-.21-.048-.422-.185-.602-.333-.441-.959-.528-1.401-.196-3.232 2.439-5.087 6.163-5.087 10.218v.36c0 1.654 1.346 3 3 3h19.64c1.654 0 3-1.346 3-3v-.36c0-3.427-1.333-6.647-3.753-9.067z"/><path d="m19.82 17.22c2.54-1.366 4.271-4.049 4.271-7.129 0-4.462-3.63-8.091-8.091-8.091s-8.091 3.629-8.091 8.091c0 3.081 1.731 5.763 4.271 7.129 2.244 1.27 5.395 1.27 7.64 0zm-3.82-13.22c3.358 0 6.091 2.732 6.091 6.091s-2.733 6.091-6.091 6.091-6.091-2.732-6.091-6.091 2.733-6.091 6.091-6.091z"/></g></svg>